<svg width="181" height="52" viewBox="0 0 181 52" fill="none" xmlns="http://www.w3.org/2000/svg">
<path d="M34.0374 10.4825L22.7835 20.7381C26.6255 26.1835 30.2105 31.0391 33.5382 35.3047H21.5129L19.1985 31.5836C17.6859 29.0727 16.6876 27.439 16.2036 26.6827L12.4371 30.1315V35.3047H2C2.24202 29.5567 2.36303 23.7331 2.36303 17.8338C2.36303 11.9044 2.24202 5.95974 2 0H12.4371V19.2406C15.3716 16.2456 18.1397 13.3262 20.7414 10.4825H34.0374Z" fill="white"/>
<path d="M63.7647 10.5279C63.553 14.3397 63.4471 18.454 63.4471 22.8709C63.4471 27.318 63.553 31.4626 63.7647 35.3047C61.8286 35.2139 60.3008 35.1685 59.1815 35.1685C58.1226 35.1685 56.5949 35.2139 54.5982 35.3047L53.2822 28.634C52.5864 31.0542 51.4973 32.8542 50.015 34.0341C48.5326 35.1837 46.8082 35.7585 44.8418 35.7585C43.0266 35.7585 41.4535 35.3652 40.1224 34.5786C38.7913 33.7618 37.7778 32.6727 37.082 31.3113C36.4165 29.95 36.0837 28.4222 36.0837 26.7281V20.1935C36.0837 16.17 36.0081 12.9481 35.8568 10.5279H46.067C45.8855 14.975 45.7948 19.3767 45.7948 23.7331C45.7948 25.0642 46.1124 26.123 46.7477 26.9096C47.4133 27.6962 48.2452 28.0894 49.2435 28.0894C50.1814 28.0894 50.9982 27.681 51.694 26.8642C52.42 26.0172 52.8587 24.8676 53.01 23.4154V22.3717C53.0705 20.012 53.1007 18.3784 53.1007 17.4708C53.1007 15.3834 53.0402 13.0691 52.9192 10.5279H63.7647Z" fill="white"/>
<path d="M87.512 18.6507C84.7288 18.4692 82.1876 18.333 79.8884 18.2423L79.843 23.0524C79.843 24.686 80.1909 25.9718 80.8867 26.9096C81.6128 27.8172 82.8834 28.271 84.6985 28.271C85.3943 28.271 86.0599 28.2105 86.6952 28.0894C86.5742 29.2088 86.5137 30.3433 86.5137 31.4929C86.5137 32.0374 86.5439 33.2778 86.6044 35.2139C85.2733 35.4559 84.154 35.6072 83.2464 35.6677C82.3388 35.7282 81.159 35.7585 79.7069 35.7585C76.1673 35.7585 73.6564 34.9114 72.174 33.2172C70.7219 31.4929 69.9958 29.1029 69.9958 26.0474L70.0412 18.3784C68.6193 18.4389 67.1369 18.5297 65.5941 18.6507V10.6186C67.1672 10.6186 68.4983 10.1195 69.5874 9.12113C70.6765 8.1228 71.3269 6.92782 71.5387 5.53621H83.8817C82.3388 7.65388 80.6296 9.34802 78.7539 10.6186H87.512V18.6507Z" fill="white"/>
<path d="M102.065 27.681C104.545 27.6205 107.011 27.5298 109.461 27.4088C112.487 27.2878 114.71 27.2121 116.132 27.1819C115.89 28.7853 115.769 31.4929 115.769 35.3047H89.5856V27.681C90.8865 26.955 92.2932 26.0625 93.8058 25.0037C95.3185 23.9449 97.2697 22.5532 99.6597 20.8288C100.93 19.8608 101.989 19.0893 102.836 18.5145C100.779 18.5448 97.9958 18.6507 94.4865 18.8322C92.0966 18.9532 90.4629 19.0288 89.5856 19.0591C89.5856 15.0657 89.4948 12.222 89.3133 10.5279H115.769V18.1515C113.893 19.3919 111.7 20.9196 109.189 22.7348C105.529 25.3365 103.154 26.9852 102.065 27.681Z" fill="white"/>
<path d="M177.932 27.7718C177.932 28.8004 178.053 29.5264 178.295 29.95C178.537 30.3735 179.021 30.676 179.748 30.8576L179.566 35.1232C178.598 35.2744 177.751 35.3803 177.025 35.4408C176.329 35.5013 175.391 35.5316 174.211 35.5316C171.61 35.5316 169.885 34.9568 169.038 33.8072C168.191 32.6273 167.768 31.1298 167.768 29.3147V28.1802C166.89 30.6609 165.604 32.5063 163.91 33.7164C162.246 34.9265 160.114 35.5316 157.512 35.5316C154.487 35.5316 152.203 34.9265 150.66 33.7164C149.147 32.5063 148.391 30.7063 148.391 28.3163C148.391 26.3499 149.041 24.8071 150.342 23.6877C151.643 22.5684 153.655 21.7969 156.377 21.3734C154.078 19.7398 151.779 18.3179 149.48 17.1078C151.295 14.8086 153.367 13.0691 155.697 11.8892C158.026 10.6791 160.855 10.0741 164.183 10.0741C168.841 10.0741 172.29 11.0875 174.529 13.1145C176.798 15.1111 177.932 18.1969 177.932 22.3717V27.7718ZM165.136 18.0607C163.593 18.0607 162.231 18.3179 161.051 18.8322C159.872 19.3465 158.813 20.1179 157.875 21.1465C159.69 20.9347 161.959 20.8288 164.682 20.8288C165.801 20.8288 166.588 20.6927 167.041 20.4204C167.495 20.1482 167.722 19.8003 167.722 19.3767C167.722 19.0137 167.495 18.7112 167.041 18.4692C166.588 18.1969 165.952 18.0607 165.136 18.0607ZM160.371 28.1348C162.065 28.1348 163.593 27.8172 164.954 27.1819C166.315 26.5163 167.253 25.6541 167.768 24.5953V23.4154C167.041 23.7785 166.24 24.0659 165.362 24.2776C164.485 24.4591 163.426 24.6407 162.186 24.8222L160.552 25.0944C158.858 25.4272 158.011 26.002 158.011 26.8188C158.011 27.6962 158.798 28.1348 160.371 28.1348Z" fill="white"/>
<path d="M146.349 16.3818C145.474 14.4597 144.248 12.9374 142.673 11.8151C141.099 10.6972 139.329 10.1338 137.364 10.1338C135.063 10.1338 133.066 10.6245 131.373 11.6106C129.68 12.5966 128.41 14.1461 127.561 16.2682L126.245 10.5882H117.531C117.713 16.2227 117.804 22.1163 117.804 28.2643C117.804 34.4123 117.713 40.3059 117.531 45.9405H127.788C127.788 44.4273 127.729 41.819 127.606 38.1248C127.484 34.3078 127.425 31.536 127.425 29.8093C128.242 31.8677 129.49 33.3899 131.169 34.376C132.848 35.362 134.868 35.8528 137.227 35.8528C139.256 35.8528 141.062 35.2393 142.651 34.0125C144.239 32.7856 145.474 31.1634 146.349 29.1504C147.225 27.1374 147.666 24.9926 147.666 22.7206C147.666 20.4487 147.225 18.3084 146.349 16.3818ZM140.454 24.0702L131.845 29.0459C131.055 29.5048 130.066 28.9323 130.066 28.0189V18.0676C130.066 17.1543 131.055 16.5817 131.845 17.0407L140.454 22.0163C141.244 22.4753 141.244 23.6158 140.454 24.0748V24.0702Z" fill="white"/>
<path d="M4.18962 43.0674C8.29585 43.0674 8.29585 48 12.3982 48C16.5006 48 16.5045 43.0674 20.6069 43.0674C24.7092 43.0674 24.7131 48 28.8155 48C32.9179 48 32.9217 43.0674 37.0241 43.0674C41.1265 43.0674 41.1303 48 45.2327 48C49.3351 48 49.339 43.0674 53.4413 43.0674C57.5437 43.0674 57.5476 48 61.65 48C65.7523 48 65.7562 43.0674 69.8586 43.0674C73.961 43.0674 73.9648 48 78.0672 48C82.1696 48 82.1735 43.0674 86.2758 43.0674C90.3782 43.0674 90.3821 48 94.4845 48C98.5868 48 98.5907 43.0674 102.693 43.0674C106.795 43.0674 106.799 48 110.902 48C115.004 48 115.008 43.0674 119.11 43.0674C123.213 43.0674 123.217 48 127.319 48C131.421 48 131.425 43.0674 135.531 43.0674C139.638 43.0674 139.638 48 143.744 48C147.85 48 147.85 43.0674 151.956 43.0674C156.063 43.0674 156.063 48 160.169 48C164.275 48 164.275 43.0674 168.381 43.0674C172.488 43.0674 172.488 48 176.594 48" stroke="url(#paint0_linear_2383_4381)" stroke-width="7" stroke-miterlimit="10" stroke-linecap="round"/>
<defs>
<linearGradient id="paint0_linear_2383_4381" x1="179.924" y1="45.519" x2="1.00954" y2="43.1051" gradientUnits="userSpaceOnUse">
<stop stop-color="#FF5171"/>
<stop offset="1" stop-color="#7301FE"/>
</linearGradient>
</defs>
</svg>
