<svg width="91" height="26" viewBox="0 0 91 26" fill="none" xmlns="http://www.w3.org/2000/svg">
<path d="M17.0187 5.24125L11.3917 10.369C13.3128 13.0918 15.1052 15.5195 16.7691 17.6523H10.7564L9.59927 15.7918C8.84296 14.5363 8.3438 13.7195 8.10178 13.3414L6.21856 15.0657V17.6523H1C1.12101 14.7784 1.18151 11.8665 1.18151 8.91693C1.18151 5.95218 1.12101 2.97987 1 0H6.21856V9.6203C7.6858 8.1228 9.06986 6.66312 10.3707 5.24125H17.0187Z" fill="white"/>
<path d="M31.8824 5.26394C31.7765 7.16985 31.7235 9.22702 31.7235 11.4354C31.7235 13.659 31.7765 15.7313 31.8824 17.6523C30.9143 17.607 30.1504 17.5843 29.5907 17.5843C29.0613 17.5843 28.2974 17.607 27.2991 17.6523L26.6411 14.317C26.2932 15.5271 25.7487 16.4271 25.0075 17.017C24.2663 17.5918 23.4041 17.8792 22.4209 17.8792C21.5133 17.8792 20.7268 17.6826 20.0612 17.2893C19.3956 16.8809 18.8889 16.3364 18.541 15.6557C18.2082 14.975 18.0418 14.2111 18.0418 13.364V10.0968C18.0418 8.08498 18.004 6.47404 17.9284 5.26394H23.0335C22.9428 7.4875 22.8974 9.68837 22.8974 11.8665C22.8974 12.5321 23.0562 13.0615 23.3739 13.4548C23.7066 13.8481 24.1226 14.0447 24.6218 14.0447C25.0907 14.0447 25.4991 13.8405 25.847 13.4321C26.21 13.0086 26.4294 12.4338 26.505 11.7077V11.1859C26.5352 10.006 26.5504 9.1892 26.5504 8.73541C26.5504 7.6917 26.5201 6.53454 26.4596 5.26394H31.8824Z" fill="white"/>
<path d="M43.756 9.32534C42.3644 9.23458 41.0938 9.16651 39.9442 9.12113L39.9215 11.5262C39.9215 12.343 40.0955 12.9859 40.4434 13.4548C40.8064 13.9086 41.4417 14.1355 42.3493 14.1355C42.6972 14.1355 43.0299 14.1052 43.3476 14.0447C43.2871 14.6044 43.2568 15.1716 43.2568 15.7464C43.2568 16.0187 43.272 16.6389 43.3022 17.607C42.6367 17.728 42.077 17.8036 41.6232 17.8339C41.1694 17.8641 40.5795 17.8792 39.8534 17.8792C38.0837 17.8792 36.8282 17.4557 36.087 16.6086C35.3609 15.7464 34.9979 14.5515 34.9979 13.0237L35.0206 9.1892C34.3097 9.21945 33.5685 9.26483 32.797 9.32534V5.30932C33.5836 5.30932 34.2492 5.05973 34.7937 4.56057C35.3382 4.0614 35.6635 3.46391 35.7693 2.76811H41.9409C41.1694 3.82694 40.3148 4.67401 39.377 5.30932H43.756V9.32534Z" fill="white"/>
<path d="M51.0324 13.8405C52.2727 13.8103 53.5055 13.7649 54.7307 13.7044C56.2434 13.6439 57.3552 13.6061 58.0661 13.5909C57.9451 14.3926 57.8846 15.7464 57.8846 17.6523H44.7928V13.8405C45.4432 13.4775 46.1466 13.0313 46.9029 12.5019C47.6592 11.9724 48.6349 11.2766 49.8298 10.4144C50.4651 9.93039 50.9946 9.54467 51.4181 9.25727C50.3895 9.27239 48.9979 9.32534 47.2433 9.41609C46.0483 9.4766 45.2315 9.51441 44.7928 9.52954C44.7928 7.53288 44.7474 6.11101 44.6567 5.26394H57.8846V9.07575C56.9467 9.69593 55.8501 10.4598 54.5946 11.3674C52.7643 12.6682 51.5769 13.4926 51.0324 13.8405Z" fill="white"/>
<path d="M88.9662 13.8859C88.9662 14.4002 89.0267 14.7632 89.1477 14.975C89.2687 15.1868 89.5107 15.338 89.8738 15.4288L89.783 17.5616C89.299 17.6372 88.8754 17.6902 88.5124 17.7204C88.1645 17.7507 87.6956 17.7658 87.1057 17.7658C85.8048 17.7658 84.9426 17.4784 84.5191 16.9036C84.0955 16.3137 83.8838 15.5649 83.8838 14.6573V14.0901C83.4451 15.3305 82.8022 16.2532 81.9552 16.8582C81.1232 17.4633 80.0568 17.7658 78.756 17.7658C77.2433 17.7658 76.1013 17.4633 75.3299 16.8582C74.5736 16.2532 74.1954 15.3531 74.1954 14.1582C74.1954 13.175 74.5206 12.4035 75.171 11.8439C75.8215 11.2842 76.8274 10.8985 78.1887 10.6867C77.0391 9.86988 75.8895 9.15895 74.7399 8.5539C75.6475 7.4043 76.6837 6.53454 77.8484 5.94462C79.0131 5.33957 80.4274 5.03704 82.0913 5.03704C84.4207 5.03704 86.1451 5.54377 87.2645 6.55723C88.3989 7.55556 88.9662 9.09844 88.9662 11.1859V13.8859ZM82.5678 9.03037C81.7963 9.03037 81.1157 9.15895 80.5257 9.41609C79.9358 9.67324 79.4064 10.059 78.9375 10.5733C79.8451 10.4674 80.9795 10.4144 82.3409 10.4144C82.9006 10.4144 83.2938 10.3464 83.5207 10.2102C83.7476 10.0741 83.8611 9.90013 83.8611 9.68837C83.8611 9.50685 83.7476 9.35559 83.5207 9.23458C83.2938 9.09844 82.9762 9.03037 82.5678 9.03037ZM80.1854 14.0674C81.0325 14.0674 81.7963 13.9086 82.477 13.5909C83.1577 13.2582 83.6266 12.8271 83.8838 12.2976V11.7077C83.5207 11.8892 83.1199 12.0329 82.6812 12.1388C82.2426 12.2296 81.7131 12.3203 81.093 12.4111L80.2761 12.5472C79.4291 12.7136 79.0055 13.001 79.0055 13.4094C79.0055 13.8481 79.3988 14.0674 80.1854 14.0674Z" fill="white"/>
<path d="M73.1747 8.19089C72.7368 7.22984 72.1241 6.46872 71.3367 5.90753C70.5493 5.34862 69.6644 5.06689 68.6818 5.06689C67.5314 5.06689 66.5329 5.31227 65.6865 5.80529C64.8401 6.29832 64.2048 7.07307 63.7804 8.13409L63.1224 5.29409H58.7656C58.8564 8.11137 58.9018 11.0582 58.9018 14.1322C58.9018 17.2062 58.8564 20.153 58.7656 22.9702H63.8939C63.8939 22.2137 63.8644 20.9095 63.8031 19.0624C63.7419 17.1539 63.7124 15.768 63.7124 14.9046C64.1208 15.9339 64.7448 16.695 65.5844 17.188C66.424 17.681 67.4338 17.9264 68.6137 17.9264C69.6281 17.9264 70.5312 17.6197 71.3254 17.0062C72.1196 16.3928 72.7368 15.5817 73.1747 14.5752C73.6127 13.5687 73.8328 12.4963 73.8328 11.3603C73.8328 10.2243 73.6127 9.15422 73.1747 8.19089ZM70.2271 12.0351L65.9225 14.5229C65.5277 14.7524 65.033 14.4661 65.033 14.0095V9.0338C65.033 8.57713 65.5277 8.29086 65.9225 8.52033L70.2271 11.0082C70.6219 11.2376 70.6219 11.8079 70.2271 12.0374V12.0351Z" fill="white"/>
<path d="M2.09481 21.5337C4.14793 21.5337 4.14793 24 6.19912 24C8.25031 24 8.25224 21.5337 10.3034 21.5337C12.3546 21.5337 12.3565 24 14.4077 24C16.4589 24 16.4609 21.5337 18.5121 21.5337C20.5632 21.5337 20.5652 24 22.6164 24C24.6676 24 24.6695 21.5337 26.7207 21.5337C28.7719 21.5337 28.7738 24 30.825 24C32.8762 24 32.8781 21.5337 34.9293 21.5337C36.9805 21.5337 36.9824 24 39.0336 24C41.0848 24 41.0867 21.5337 43.1379 21.5337C45.1891 21.5337 45.191 24 47.2422 24C49.2934 24 49.2953 21.5337 51.3465 21.5337C53.3977 21.5337 53.3997 24 55.4508 24C57.502 24 57.504 21.5337 59.5552 21.5337C61.6064 21.5337 61.6083 24 63.6595 24C65.7107 24 65.7126 21.5337 67.7657 21.5337C69.8188 21.5337 69.8188 24 71.8719 24C73.9251 24 73.9251 21.5337 75.9782 21.5337C78.0313 21.5337 78.0313 24 80.0844 24C82.1375 24 82.1375 21.5337 84.1906 21.5337C86.2438 21.5337 86.2438 24 88.2969 24" stroke="url(#paint0_linear_2377_4370)" stroke-width="4" stroke-miterlimit="10" stroke-linecap="round"/>
<defs>
<linearGradient id="paint0_linear_2377_4370" x1="89.9621" y1="22.7595" x2="0.50477" y2="21.5526" gradientUnits="userSpaceOnUse">
<stop stop-color="#FF5171"/>
<stop offset="1" stop-color="#7301FE"/>
</linearGradient>
</defs>
</svg>
